# xmcd CD database file
#
# Track frame offsets:
#	150
#	14805
#	27764
#	45630
#	59511
#	71747
#	85242
#	96435
#	108198
#	123909
#	139936
#	156213
#	173472
#	186254
#	200359
#	216544
#	230249
#	244779
#	263719
#	279622
#	301142
#	315445
#	333221
#
# Disc length: 4593 seconds
#
# Revision: 1
# Processed by: cddbd v1.5.1PL0 Copyright (c) Steve Scherf et al.
# Submitted via: NeoAudio 9.9.9
#
DISCID=4f11ef17
DTITLE=Various Artist - Tropeiros do Vale
DYEAR=2004
DGENRE=Country
TTITLE0=Berrante da Saudade - Peão Carreiro and Zé Paulo
TTITLE1=Convite de Caboclo - Eli Silva and Zé Goiano
TTITLE2=A vara e o ferrão - Cacique and Pagé
TTITLE3=Besta ruana - Ado Benati and Tonico
TTITLE4=Burro picasso - Trio Turuna
TTITLE5=Capiau - Goiano and Paranaense
TTITLE6=Jeito caipira - Gino and Geno
TTITLE7=Moradia - Daniel
TTITLE8=O Caipirão - Craveiro and Cravinho
TTITLE9=O carro e a faculdade - Trio Parada Dura
TTITLE10=O Doutor e o Caipira - Goiano and Paranaense
TTITLE11=O milagre da santa - Felipe and Falcão
TTITLE12=Pé da letra - Milionário e José Rico
TTITLE13=Saudade da minha terra - Belmonte and Amari
TTITLE14=Prato do dia =Tião Carreiro and Pardinho
TTITLE15=Saco de ouro - Mococa and Paraíso
TTITLE16=Tropa saudosa - Jacó and Jacozinho
TTITLE17=Mágoa de Boiadeiro - Sérgio Reis
TTITLE18=Meu reino encantado - Daniel
TTITLE19=Olhos de luar - Christian and Ralf
TTITLE20=Peão - Almir Sater
TTITLE21=Vide-vida malvada - Roberto Boldrin
TTITLE22=O tropeiro - Milionário and José Rico
EXTD=YEAR: 2004
EXTT0=
EXTT1=
EXTT2=
EXTT3=
EXTT4=
EXTT5=
EXTT6=
EXTT7=
EXTT8=
EXTT9=
EXTT10=
EXTT11=
EXTT12=
EXTT13=
EXTT14=
EXTT15=
EXTT16=
EXTT17=
EXTT18=
EXTT19=
EXTT20=
EXTT21=
EXTT22=
PLAYORDER=
